<svg aria-roledescription="er" role="graphics-document document" viewBox="0 0 736.21875 642" style="max-width: 736.21875px;" xmlns="http://www.w3.org/2000/svg" width="100%" id="mermaidSvgChart"><style>#mermaidSvgChart{font-family:"trebuchet ms",verdana,arial,sans-serif;font-size:16px;fill:#ccc;}#mermaidSvgChart .error-icon{fill:#a44141;}#mermaidSvgChart .error-text{fill:#ddd;stroke:#ddd;}#mermaidSvgChart .edge-thickness-normal{stroke-width:2px;}#mermaidSvgChart .edge-thickness-thick{stroke-width:3.5px;}#mermaidSvgChart .edge-pattern-solid{stroke-dasharray:0;}#mermaidSvgChart .edge-pattern-dashed{stroke-dasharray:3;}#mermaidSvgChart .edge-pattern-dotted{stroke-dasharray:2;}#mermaidSvgChart .marker{fill:lightgrey;stroke:lightgrey;}#mermaidSvgChart .marker.cross{stroke:lightgrey;}#mermaidSvgChart svg{font-family:"trebuchet ms",verdana,arial,sans-serif;font-size:16px;}#mermaidSvgChart .entityBox{fill:#1f2020;stroke:#81B1DB;}#mermaidSvgChart .attributeBoxOdd{fill:hsl(0, 0%, 32%);stroke:#81B1DB;}#mermaidSvgChart .attributeBoxEven{fill:hsl(0, 0%, 22%);stroke:#81B1DB;}#mermaidSvgChart .relationshipLabelBox{fill:hsl(20, 1.5873015873%, 12.3529411765%);opacity:0.7;background-color:hsl(20, 1.5873015873%, 12.3529411765%);}#mermaidSvgChart .relationshipLabelBox rect{opacity:0.5;}#mermaidSvgChart .relationshipLine{stroke:lightgrey;}#mermaidSvgChart .entityTitleText{text-anchor:middle;font-size:18px;fill:#ccc;}#mermaidSvgChart :root{--mermaid-font-family:"trebuchet ms",verdana,arial,sans-serif;}</style><g></g><defs><marker orient="auto" markerHeight="18" markerWidth="18" refY="9" refX="0" id="ONLY_ONE_START"><path d="M9,0 L9,18 M15,0 L15,18" fill="none" stroke="gray"></path></marker></defs><defs><marker orient="auto" markerHeight="18" markerWidth="18" refY="9" refX="18" id="ONLY_ONE_END"><path d="M3,0 L3,18 M9,0 L9,18" fill="none" stroke="gray"></path></marker></defs><defs><marker orient="auto" markerHeight="18" markerWidth="30" refY="9" refX="0" id="ZERO_OR_ONE_START"><circle r="6" cy="9" cx="21" fill="white" stroke="gray"></circle><path d="M9,0 L9,18" fill="none" stroke="gray"></path></marker></defs><defs><marker orient="auto" markerHeight="18" markerWidth="30" refY="9" refX="30" id="ZERO_OR_ONE_END"><circle r="6" cy="9" cx="9" fill="white" stroke="gray"></circle><path d="M21,0 L21,18" fill="none" stroke="gray"></path></marker></defs><defs><marker orient="auto" markerHeight="36" markerWidth="45" refY="18" refX="18" id="ONE_OR_MORE_START"><path d="M0,18 Q 18,0 36,18 Q 18,36 0,18 M42,9 L42,27" fill="none" stroke="gray"></path></marker></defs><defs><marker orient="auto" markerHeight="36" markerWidth="45" refY="18" refX="27" id="ONE_OR_MORE_END"><path d="M3,9 L3,27 M9,18 Q27,0 45,18 Q27,36 9,18" fill="none" stroke="gray"></path></marker></defs><defs><marker orient="auto" markerHeight="36" markerWidth="57" refY="18" refX="18" id="ZERO_OR_MORE_START"><circle r="6" cy="18" cx="48" fill="white" stroke="gray"></circle><path d="M0,18 Q18,0 36,18 Q18,36 0,18" fill="none" stroke="gray"></path></marker></defs><defs><marker orient="auto" markerHeight="36" markerWidth="57" refY="18" refX="39" id="ZERO_OR_MORE_END"><circle r="6" cy="18" cx="9" fill="white" stroke="gray"></circle><path d="M21,18 Q39,0 57,18 Q39,36 21,18" fill="none" stroke="gray"></path></marker></defs><path style="stroke: gray; fill: none;" marker-start="url(#ONLY_ONE_START)" marker-end="url(#ONE_OR_MORE_END)" d="M623.547,410L623.547,422C623.547,434,623.547,458,623.547,478.333C623.547,498.667,623.547,515.333,623.547,523.667L623.547,532" class="er relationshipLine"></path><path style="stroke: gray; fill: none;" marker-start="url(#ONLY_ONE_START)" marker-end="url(#ONE_OR_MORE_END)" d="M385.371,154L381.81,162.333C378.249,170.667,371.126,187.333,367.565,204C364.004,220.667,364.004,237.333,364.004,245.667L364.004,254" class="er relationshipLine"></path><path style="stroke: gray; fill: none;" marker-start="url(#ONLY_ONE_START)" marker-end="url(#ONE_OR_MORE_END)" d="M488.317,154L497.56,162.333C506.803,170.667,525.289,187.333,541.419,207.667C557.549,228,571.322,252,578.209,264L585.096,276" class="er relationshipLine"></path><path style="stroke: gray; fill: none;" marker-start="url(#ONLY_ONE_START)" marker-end="url(#ONE_OR_MORE_END)" d="M496.758,124.305L526.223,137.587C555.688,150.87,614.617,177.435,639.765,202.717C664.914,228,656.281,252,651.964,264L647.648,276" class="er relationshipLine"></path><path style="stroke: gray; fill: none;" marker-start="url(#ONLY_ONE_START)" marker-end="url(#ONE_OR_MORE_END)" d="M331.25,118.136L293.215,132.447C255.18,146.757,179.109,175.379,141.074,199.856C103.039,224.333,103.039,244.667,103.039,254.833L103.039,265" class="er relationshipLine"></path><g transform="translate(530.875,532 )" id="entity-dboCourse-5ca892d5-6384-5f6e-9da0-b40298396a85"><rect height="90" width="185.34375" y="0" x="0" class="er entityBox"></rect><text style="dominant-baseline: middle; text-anchor: middle; font-size: 12px;" transform="translate(92.671875,12)" y="0" x="0" id="text-entity-dboCourse-5ca892d5-6384-5f6e-9da0-b40298396a85" class="er entityLabel">dbo.Course</text><rect height="22" width="67.828125" y="24" x="0" class="er attributeBoxOdd"></rect><text style="dominant-baseline: middle; font-size: 10.2px;" transform="translate(5,35)" y="0" x="0" id="text-entity-dboCourse-5ca892d5-6384-5f6e-9da0-b40298396a85-attr-1-type" class="er entityLabel">varchar(255)</text><rect height="22" width="93.90625" y="24" x="67.828125" class="er attributeBoxOdd"></rect><text style="dominant-baseline: middle; font-size: 10.2px;" transform="translate(72.828125,35)" y="0" x="0" id="text-entity-dboCourse-5ca892d5-6384-5f6e-9da0-b40298396a85-attr-1-name" class="er entityLabel">CourseID</text><rect height="22" width="23.609375" y="24" x="161.734375" class="er attributeBoxOdd"></rect><text style="dominant-baseline: middle; font-size: 10.2px;" transform="translate(166.734375,35)" y="0" x="0" id="text-entity-dboCourse-5ca892d5-6384-5f6e-9da0-b40298396a85-attr-1-comment" class="er entityLabel">PK</text><rect height="22" width="67.828125" y="46" x="0" class="er attributeBoxEven"></rect><text style="dominant-baseline: middle; font-size: 10.2px;" transform="translate(5,57)" y="0" x="0" id="text-entity-dboCourse-5ca892d5-6384-5f6e-9da0-b40298396a85-attr-2-type" class="er entityLabel">varchar(255)</text><rect height="22" width="93.90625" y="46" x="67.828125" class="er attributeBoxEven"></rect><text style="dominant-baseline: middle; font-size: 10.2px;" transform="translate(72.828125,57)" y="0" x="0" id="text-entity-dboCourse-5ca892d5-6384-5f6e-9da0-b40298396a85-attr-2-name" class="er entityLabel">CourseDescription</text><rect height="22" width="23.609375" y="46" x="161.734375" class="er attributeBoxEven"></rect><text style="dominant-baseline: middle; font-size: 10.2px;" transform="translate(166.734375,57)" y="0" x="0" id="text-entity-dboCourse-5ca892d5-6384-5f6e-9da0-b40298396a85-attr-2-comment" class="er entityLabel"></text><rect height="22" width="67.828125" y="68" x="0" class="er attributeBoxOdd"></rect><text style="dominant-baseline: middle; font-size: 10.2px;" transform="translate(5,79)" y="0" x="0" id="text-entity-dboCourse-5ca892d5-6384-5f6e-9da0-b40298396a85-attr-3-type" class="er entityLabel">decimal</text><rect height="22" width="93.90625" y="68" x="67.828125" class="er attributeBoxOdd"></rect><text style="dominant-baseline: middle; font-size: 10.2px;" transform="translate(72.828125,79)" y="0" x="0" id="text-entity-dboCourse-5ca892d5-6384-5f6e-9da0-b40298396a85-attr-3-name" class="er entityLabel">CourseFee</text><rect height="22" width="23.609375" y="68" x="161.734375" class="er attributeBoxOdd"></rect><text style="dominant-baseline: middle; font-size: 10.2px;" transform="translate(166.734375,79)" y="0" x="0" id="text-entity-dboCourse-5ca892d5-6384-5f6e-9da0-b40298396a85-attr-3-comment" class="er entityLabel"></text></g><g transform="translate(20,265 )" id="entity-dboFaculty-1e3e876b-1608-5b93-804f-2dff5ba9b50a"><rect height="156" width="166.078125" y="0" x="0" class="er entityBox"></rect><text style="dominant-baseline: middle; text-anchor: middle; font-size: 12px;" transform="translate(83.0390625,12)" y="0" x="0" id="text-entity-dboFaculty-1e3e876b-1608-5b93-804f-2dff5ba9b50a" class="er entityLabel">dbo.Faculty</text><rect height="22" width="67.828125" y="24" x="0" class="er attributeBoxOdd"></rect><text style="dominant-baseline: middle; font-size: 10.2px;" transform="translate(5,35)" y="0" x="0" id="text-entity-dboFaculty-1e3e876b-1608-5b93-804f-2dff5ba9b50a-attr-1-type" class="er entityLabel">varchar(255)</text><rect height="22" width="74.640625" y="24" x="67.828125" class="er attributeBoxOdd"></rect><text style="dominant-baseline: middle; font-size: 10.2px;" transform="translate(72.828125,35)" y="0" x="0" id="text-entity-dboFaculty-1e3e876b-1608-5b93-804f-2dff5ba9b50a-attr-1-name" class="er entityLabel">FacultyID</text><rect height="22" width="23.609375" y="24" x="142.46875" class="er attributeBoxOdd"></rect><text style="dominant-baseline: middle; font-size: 10.2px;" transform="translate(147.46875,35)" y="0" x="0" id="text-entity-dboFaculty-1e3e876b-1608-5b93-804f-2dff5ba9b50a-attr-1-comment" class="er entityLabel">PK</text><rect height="22" width="67.828125" y="46" x="0" class="er attributeBoxEven"></rect><text style="dominant-baseline: middle; font-size: 10.2px;" transform="translate(5,57)" y="0" x="0" id="text-entity-dboFaculty-1e3e876b-1608-5b93-804f-2dff5ba9b50a-attr-2-type" class="er entityLabel">varchar(50)</text><rect height="22" width="74.640625" y="46" x="67.828125" class="er attributeBoxEven"></rect><text style="dominant-baseline: middle; font-size: 10.2px;" transform="translate(72.828125,57)" y="0" x="0" id="text-entity-dboFaculty-1e3e876b-1608-5b93-804f-2dff5ba9b50a-attr-2-name" class="er entityLabel">FirstName</text><rect height="22" width="23.609375" y="46" x="142.46875" class="er attributeBoxEven"></rect><text style="dominant-baseline: middle; font-size: 10.2px;" transform="translate(147.46875,57)" y="0" x="0" id="text-entity-dboFaculty-1e3e876b-1608-5b93-804f-2dff5ba9b50a-attr-2-comment" class="er entityLabel"></text><rect height="22" width="67.828125" y="68" x="0" class="er attributeBoxOdd"></rect><text style="dominant-baseline: middle; font-size: 10.2px;" transform="translate(5,79)" y="0" x="0" id="text-entity-dboFaculty-1e3e876b-1608-5b93-804f-2dff5ba9b50a-attr-3-type" class="er entityLabel">varchar(50)</text><rect height="22" width="74.640625" y="68" x="67.828125" class="er attributeBoxOdd"></rect><text style="dominant-baseline: middle; font-size: 10.2px;" transform="translate(72.828125,79)" y="0" x="0" id="text-entity-dboFaculty-1e3e876b-1608-5b93-804f-2dff5ba9b50a-attr-3-name" class="er entityLabel">LastName</text><rect height="22" width="23.609375" y="68" x="142.46875" class="er attributeBoxOdd"></rect><text style="dominant-baseline: middle; font-size: 10.2px;" transform="translate(147.46875,79)" y="0" x="0" id="text-entity-dboFaculty-1e3e876b-1608-5b93-804f-2dff5ba9b50a-attr-3-comment" class="er entityLabel"></text><rect height="22" width="67.828125" y="90" x="0" class="er attributeBoxEven"></rect><text style="dominant-baseline: middle; font-size: 10.2px;" transform="translate(5,101)" y="0" x="0" id="text-entity-dboFaculty-1e3e876b-1608-5b93-804f-2dff5ba9b50a-attr-4-type" class="er entityLabel">varchar(100)</text><rect height="22" width="74.640625" y="90" x="67.828125" class="er attributeBoxEven"></rect><text style="dominant-baseline: middle; font-size: 10.2px;" transform="translate(72.828125,101)" y="0" x="0" id="text-entity-dboFaculty-1e3e876b-1608-5b93-804f-2dff5ba9b50a-attr-4-name" class="er entityLabel">PrimaryEmail</text><rect height="22" width="23.609375" y="90" x="142.46875" class="er attributeBoxEven"></rect><text style="dominant-baseline: middle; font-size: 10.2px;" transform="translate(147.46875,101)" y="0" x="0" id="text-entity-dboFaculty-1e3e876b-1608-5b93-804f-2dff5ba9b50a-attr-4-comment" class="er entityLabel"></text><rect height="22" width="67.828125" y="112" x="0" class="er attributeBoxOdd"></rect><text style="dominant-baseline: middle; font-size: 10.2px;" transform="translate(5,123)" y="0" x="0" id="text-entity-dboFaculty-1e3e876b-1608-5b93-804f-2dff5ba9b50a-attr-5-type" class="er entityLabel">date</text><rect height="22" width="74.640625" y="112" x="67.828125" class="er attributeBoxOdd"></rect><text style="dominant-baseline: middle; font-size: 10.2px;" transform="translate(72.828125,123)" y="0" x="0" id="text-entity-dboFaculty-1e3e876b-1608-5b93-804f-2dff5ba9b50a-attr-5-name" class="er entityLabel">DateOfJoining</text><rect height="22" width="23.609375" y="112" x="142.46875" class="er attributeBoxOdd"></rect><text style="dominant-baseline: middle; font-size: 10.2px;" transform="translate(147.46875,123)" y="0" x="0" id="text-entity-dboFaculty-1e3e876b-1608-5b93-804f-2dff5ba9b50a-attr-5-comment" class="er entityLabel"></text><rect height="22" width="67.828125" y="134" x="0" class="er attributeBoxEven"></rect><text style="dominant-baseline: middle; font-size: 10.2px;" transform="translate(5,145)" y="0" x="0" id="text-entity-dboFaculty-1e3e876b-1608-5b93-804f-2dff5ba9b50a-attr-6-type" class="er entityLabel">varchar(15)</text><rect height="22" width="74.640625" y="134" x="67.828125" class="er attributeBoxEven"></rect><text style="dominant-baseline: middle; font-size: 10.2px;" transform="translate(72.828125,145)" y="0" x="0" id="text-entity-dboFaculty-1e3e876b-1608-5b93-804f-2dff5ba9b50a-attr-6-name" class="er entityLabel">WorkPhone</text><rect height="22" width="23.609375" y="134" x="142.46875" class="er attributeBoxEven"></rect><text style="dominant-baseline: middle; font-size: 10.2px;" transform="translate(147.46875,145)" y="0" x="0" id="text-entity-dboFaculty-1e3e876b-1608-5b93-804f-2dff5ba9b50a-attr-6-comment" class="er entityLabel"></text></g><g transform="translate(286.078125,254 )" id="entity-dboStudent-5c7a38a9-2890-541b-a130-c8a464b22b97"><rect height="178" width="155.8515625" y="0" x="0" class="er entityBox"></rect><text style="dominant-baseline: middle; text-anchor: middle; font-size: 12px;" transform="translate(77.92578125,12)" y="0" x="0" id="text-entity-dboStudent-5c7a38a9-2890-541b-a130-c8a464b22b97" class="er entityLabel">dbo.Student</text><rect height="22" width="62.15625" y="24" x="0" class="er attributeBoxOdd"></rect><text style="dominant-baseline: middle; font-size: 10.2px;" transform="translate(5,35)" y="0" x="0" id="text-entity-dboStudent-5c7a38a9-2890-541b-a130-c8a464b22b97-attr-1-type" class="er entityLabel">varchar(50)</text><rect height="22" width="70.0859375" y="24" x="62.15625" class="er attributeBoxOdd"></rect><text style="dominant-baseline: middle; font-size: 10.2px;" transform="translate(67.15625,35)" y="0" x="0" id="text-entity-dboStudent-5c7a38a9-2890-541b-a130-c8a464b22b97-attr-1-name" class="er entityLabel">StudentID</text><rect height="22" width="23.609375" y="24" x="132.2421875" class="er attributeBoxOdd"></rect><text style="dominant-baseline: middle; font-size: 10.2px;" transform="translate(137.2421875,35)" y="0" x="0" id="text-entity-dboStudent-5c7a38a9-2890-541b-a130-c8a464b22b97-attr-1-comment" class="er entityLabel">PK</text><rect height="22" width="62.15625" y="46" x="0" class="er attributeBoxEven"></rect><text style="dominant-baseline: middle; font-size: 10.2px;" transform="translate(5,57)" y="0" x="0" id="text-entity-dboStudent-5c7a38a9-2890-541b-a130-c8a464b22b97-attr-2-type" class="er entityLabel">varchar(50)</text><rect height="22" width="70.0859375" y="46" x="62.15625" class="er attributeBoxEven"></rect><text style="dominant-baseline: middle; font-size: 10.2px;" transform="translate(67.15625,57)" y="0" x="0" id="text-entity-dboStudent-5c7a38a9-2890-541b-a130-c8a464b22b97-attr-2-name" class="er entityLabel">FirstName</text><rect height="22" width="23.609375" y="46" x="132.2421875" class="er attributeBoxEven"></rect><text style="dominant-baseline: middle; font-size: 10.2px;" transform="translate(137.2421875,57)" y="0" x="0" id="text-entity-dboStudent-5c7a38a9-2890-541b-a130-c8a464b22b97-attr-2-comment" class="er entityLabel"></text><rect height="22" width="62.15625" y="68" x="0" class="er attributeBoxOdd"></rect><text style="dominant-baseline: middle; font-size: 10.2px;" transform="translate(5,79)" y="0" x="0" id="text-entity-dboStudent-5c7a38a9-2890-541b-a130-c8a464b22b97-attr-3-type" class="er entityLabel">varchar(50)</text><rect height="22" width="70.0859375" y="68" x="62.15625" class="er attributeBoxOdd"></rect><text style="dominant-baseline: middle; font-size: 10.2px;" transform="translate(67.15625,79)" y="0" x="0" id="text-entity-dboStudent-5c7a38a9-2890-541b-a130-c8a464b22b97-attr-3-name" class="er entityLabel">LastName</text><rect height="22" width="23.609375" y="68" x="132.2421875" class="er attributeBoxOdd"></rect><text style="dominant-baseline: middle; font-size: 10.2px;" transform="translate(137.2421875,79)" y="0" x="0" id="text-entity-dboStudent-5c7a38a9-2890-541b-a130-c8a464b22b97-attr-3-comment" class="er entityLabel"></text><rect height="22" width="62.15625" y="90" x="0" class="er attributeBoxEven"></rect><text style="dominant-baseline: middle; font-size: 10.2px;" transform="translate(5,101)" y="0" x="0" id="text-entity-dboStudent-5c7a38a9-2890-541b-a130-c8a464b22b97-attr-4-type" class="er entityLabel">varchar(50)</text><rect height="22" width="70.0859375" y="90" x="62.15625" class="er attributeBoxEven"></rect><text style="dominant-baseline: middle; font-size: 10.2px;" transform="translate(67.15625,101)" y="0" x="0" id="text-entity-dboStudent-5c7a38a9-2890-541b-a130-c8a464b22b97-attr-4-name" class="er entityLabel">State</text><rect height="22" width="23.609375" y="90" x="132.2421875" class="er attributeBoxEven"></rect><text style="dominant-baseline: middle; font-size: 10.2px;" transform="translate(137.2421875,101)" y="0" x="0" id="text-entity-dboStudent-5c7a38a9-2890-541b-a130-c8a464b22b97-attr-4-comment" class="er entityLabel"></text><rect height="22" width="62.15625" y="112" x="0" class="er attributeBoxOdd"></rect><text style="dominant-baseline: middle; font-size: 10.2px;" transform="translate(5,123)" y="0" x="0" id="text-entity-dboStudent-5c7a38a9-2890-541b-a130-c8a464b22b97-attr-5-type" class="er entityLabel">varchar(10)</text><rect height="22" width="70.0859375" y="112" x="62.15625" class="er attributeBoxOdd"></rect><text style="dominant-baseline: middle; font-size: 10.2px;" transform="translate(67.15625,123)" y="0" x="0" id="text-entity-dboStudent-5c7a38a9-2890-541b-a130-c8a464b22b97-attr-5-name" class="er entityLabel">Zip</text><rect height="22" width="23.609375" y="112" x="132.2421875" class="er attributeBoxOdd"></rect><text style="dominant-baseline: middle; font-size: 10.2px;" transform="translate(137.2421875,123)" y="0" x="0" id="text-entity-dboStudent-5c7a38a9-2890-541b-a130-c8a464b22b97-attr-5-comment" class="er entityLabel"></text><rect height="22" width="62.15625" y="134" x="0" class="er attributeBoxEven"></rect><text style="dominant-baseline: middle; font-size: 10.2px;" transform="translate(5,145)" y="0" x="0" id="text-entity-dboStudent-5c7a38a9-2890-541b-a130-c8a464b22b97-attr-6-type" class="er entityLabel">varchar(50)</text><rect height="22" width="70.0859375" y="134" x="62.15625" class="er attributeBoxEven"></rect><text style="dominant-baseline: middle; font-size: 10.2px;" transform="translate(67.15625,145)" y="0" x="0" id="text-entity-dboStudent-5c7a38a9-2890-541b-a130-c8a464b22b97-attr-6-name" class="er entityLabel">Degree</text><rect height="22" width="23.609375" y="134" x="132.2421875" class="er attributeBoxEven"></rect><text style="dominant-baseline: middle; font-size: 10.2px;" transform="translate(137.2421875,145)" y="0" x="0" id="text-entity-dboStudent-5c7a38a9-2890-541b-a130-c8a464b22b97-attr-6-comment" class="er entityLabel"></text><rect height="22" width="62.15625" y="156" x="0" class="er attributeBoxOdd"></rect><text style="dominant-baseline: middle; font-size: 10.2px;" transform="translate(5,167)" y="0" x="0" id="text-entity-dboStudent-5c7a38a9-2890-541b-a130-c8a464b22b97-attr-7-type" class="er entityLabel">int</text><rect height="22" width="70.0859375" y="156" x="62.15625" class="er attributeBoxOdd"></rect><text style="dominant-baseline: middle; font-size: 10.2px;" transform="translate(67.15625,167)" y="0" x="0" id="text-entity-dboStudent-5c7a38a9-2890-541b-a130-c8a464b22b97-attr-7-name" class="er entityLabel">NoOfClasses</text><rect height="22" width="23.609375" y="156" x="132.2421875" class="er attributeBoxOdd"></rect><text style="dominant-baseline: middle; font-size: 10.2px;" transform="translate(137.2421875,167)" y="0" x="0" id="text-entity-dboStudent-5c7a38a9-2890-541b-a130-c8a464b22b97-attr-7-comment" class="er entityLabel"></text></g><g transform="translate(541.9296875,276 )" id="entity-dboClass-a8b50d37-4374-5624-85dc-0a6477a1b5f9"><rect height="134" width="163.234375" y="0" x="0" class="er entityBox"></rect><text style="dominant-baseline: middle; text-anchor: middle; font-size: 12px;" transform="translate(81.6171875,12)" y="0" x="0" id="text-entity-dboClass-a8b50d37-4374-5624-85dc-0a6477a1b5f9" class="er entityLabel">dbo.Class</text><rect height="22" width="67.828125" y="24" x="0" class="er attributeBoxOdd"></rect><text style="dominant-baseline: middle; font-size: 10.2px;" transform="translate(5,35)" y="0" x="0" id="text-entity-dboClass-a8b50d37-4374-5624-85dc-0a6477a1b5f9-attr-1-type" class="er entityLabel">varchar(50)</text><rect height="22" width="53.09375" y="24" x="67.828125" class="er attributeBoxOdd"></rect><text style="dominant-baseline: middle; font-size: 10.2px;" transform="translate(72.828125,35)" y="0" x="0" id="text-entity-dboClass-a8b50d37-4374-5624-85dc-0a6477a1b5f9-attr-1-name" class="er entityLabel">ClassID</text><rect height="22" width="42.3125" y="24" x="120.921875" class="er attributeBoxOdd"></rect><text style="dominant-baseline: middle; font-size: 10.2px;" transform="translate(125.921875,35)" y="0" x="0" id="text-entity-dboClass-a8b50d37-4374-5624-85dc-0a6477a1b5f9-attr-1-comment" class="er entityLabel">PK</text><rect height="22" width="67.828125" y="46" x="0" class="er attributeBoxEven"></rect><text style="dominant-baseline: middle; font-size: 10.2px;" transform="translate(5,57)" y="0" x="0" id="text-entity-dboClass-a8b50d37-4374-5624-85dc-0a6477a1b5f9-attr-2-type" class="er entityLabel">varchar(255)</text><rect height="22" width="53.09375" y="46" x="67.828125" class="er attributeBoxEven"></rect><text style="dominant-baseline: middle; font-size: 10.2px;" transform="translate(72.828125,57)" y="0" x="0" id="text-entity-dboClass-a8b50d37-4374-5624-85dc-0a6477a1b5f9-attr-2-name" class="er entityLabel">CourseID</text><rect height="22" width="42.3125" y="46" x="120.921875" class="er attributeBoxEven"></rect><text style="dominant-baseline: middle; font-size: 10.2px;" transform="translate(125.921875,57)" y="0" x="0" id="text-entity-dboClass-a8b50d37-4374-5624-85dc-0a6477a1b5f9-attr-2-comment" class="er entityLabel">PK, FK</text><rect height="22" width="67.828125" y="68" x="0" class="er attributeBoxOdd"></rect><text style="dominant-baseline: middle; font-size: 10.2px;" transform="translate(5,79)" y="0" x="0" id="text-entity-dboClass-a8b50d37-4374-5624-85dc-0a6477a1b5f9-attr-3-type" class="er entityLabel">date</text><rect height="22" width="53.09375" y="68" x="67.828125" class="er attributeBoxOdd"></rect><text style="dominant-baseline: middle; font-size: 10.2px;" transform="translate(72.828125,79)" y="0" x="0" id="text-entity-dboClass-a8b50d37-4374-5624-85dc-0a6477a1b5f9-attr-3-name" class="er entityLabel">StartDate</text><rect height="22" width="42.3125" y="68" x="120.921875" class="er attributeBoxOdd"></rect><text style="dominant-baseline: middle; font-size: 10.2px;" transform="translate(125.921875,79)" y="0" x="0" id="text-entity-dboClass-a8b50d37-4374-5624-85dc-0a6477a1b5f9-attr-3-comment" class="er entityLabel"></text><rect height="22" width="67.828125" y="90" x="0" class="er attributeBoxEven"></rect><text style="dominant-baseline: middle; font-size: 10.2px;" transform="translate(5,101)" y="0" x="0" id="text-entity-dboClass-a8b50d37-4374-5624-85dc-0a6477a1b5f9-attr-4-type" class="er entityLabel">date</text><rect height="22" width="53.09375" y="90" x="67.828125" class="er attributeBoxEven"></rect><text style="dominant-baseline: middle; font-size: 10.2px;" transform="translate(72.828125,101)" y="0" x="0" id="text-entity-dboClass-a8b50d37-4374-5624-85dc-0a6477a1b5f9-attr-4-name" class="er entityLabel">EndDate</text><rect height="22" width="42.3125" y="90" x="120.921875" class="er attributeBoxEven"></rect><text style="dominant-baseline: middle; font-size: 10.2px;" transform="translate(125.921875,101)" y="0" x="0" id="text-entity-dboClass-a8b50d37-4374-5624-85dc-0a6477a1b5f9-attr-4-comment" class="er entityLabel"></text><rect height="22" width="67.828125" y="112" x="0" class="er attributeBoxOdd"></rect><text style="dominant-baseline: middle; font-size: 10.2px;" transform="translate(5,123)" y="0" x="0" id="text-entity-dboClass-a8b50d37-4374-5624-85dc-0a6477a1b5f9-attr-5-type" class="er entityLabel">varchar(255)</text><rect height="22" width="53.09375" y="112" x="67.828125" class="er attributeBoxOdd"></rect><text style="dominant-baseline: middle; font-size: 10.2px;" transform="translate(72.828125,123)" y="0" x="0" id="text-entity-dboClass-a8b50d37-4374-5624-85dc-0a6477a1b5f9-attr-5-name" class="er entityLabel">Location</text><rect height="22" width="42.3125" y="112" x="120.921875" class="er attributeBoxOdd"></rect><text style="dominant-baseline: middle; font-size: 10.2px;" transform="translate(125.921875,123)" y="0" x="0" id="text-entity-dboClass-a8b50d37-4374-5624-85dc-0a6477a1b5f9-attr-5-comment" class="er entityLabel"></text></g><g transform="translate(331.25,20 )" id="entity-dboStudentGrade-d9998fa7-d1ea-54ce-ad38-206ed97c6fc5"><rect height="134" width="165.5078125" y="0" x="0" class="er entityBox"></rect><text style="dominant-baseline: middle; text-anchor: middle; font-size: 12px;" transform="translate(82.75390625,12)" y="0" x="0" id="text-entity-dboStudentGrade-d9998fa7-d1ea-54ce-ad38-206ed97c6fc5" class="er entityLabel">dbo.StudentGrade</text><rect height="22" width="67.828125" y="24" x="0" class="er attributeBoxOdd"></rect><text style="dominant-baseline: middle; font-size: 10.2px;" transform="translate(5,35)" y="0" x="0" id="text-entity-dboStudentGrade-d9998fa7-d1ea-54ce-ad38-206ed97c6fc5-attr-1-type" class="er entityLabel">varchar(50)</text><rect height="22" width="55.3671875" y="24" x="67.828125" class="er attributeBoxOdd"></rect><text style="dominant-baseline: middle; font-size: 10.2px;" transform="translate(72.828125,35)" y="0" x="0" id="text-entity-dboStudentGrade-d9998fa7-d1ea-54ce-ad38-206ed97c6fc5-attr-1-name" class="er entityLabel">StudentID</text><rect height="22" width="42.3125" y="24" x="123.1953125" class="er attributeBoxOdd"></rect><text style="dominant-baseline: middle; font-size: 10.2px;" transform="translate(128.1953125,35)" y="0" x="0" id="text-entity-dboStudentGrade-d9998fa7-d1ea-54ce-ad38-206ed97c6fc5-attr-1-comment" class="er entityLabel">PK, FK</text><rect height="22" width="67.828125" y="46" x="0" class="er attributeBoxEven"></rect><text style="dominant-baseline: middle; font-size: 10.2px;" transform="translate(5,57)" y="0" x="0" id="text-entity-dboStudentGrade-d9998fa7-d1ea-54ce-ad38-206ed97c6fc5-attr-2-type" class="er entityLabel">varchar(50)</text><rect height="22" width="55.3671875" y="46" x="67.828125" class="er attributeBoxEven"></rect><text style="dominant-baseline: middle; font-size: 10.2px;" transform="translate(72.828125,57)" y="0" x="0" id="text-entity-dboStudentGrade-d9998fa7-d1ea-54ce-ad38-206ed97c6fc5-attr-2-name" class="er entityLabel">ClassID</text><rect height="22" width="42.3125" y="46" x="123.1953125" class="er attributeBoxEven"></rect><text style="dominant-baseline: middle; font-size: 10.2px;" transform="translate(128.1953125,57)" y="0" x="0" id="text-entity-dboStudentGrade-d9998fa7-d1ea-54ce-ad38-206ed97c6fc5-attr-2-comment" class="er entityLabel">PK, FK</text><rect height="22" width="67.828125" y="68" x="0" class="er attributeBoxOdd"></rect><text style="dominant-baseline: middle; font-size: 10.2px;" transform="translate(5,79)" y="0" x="0" id="text-entity-dboStudentGrade-d9998fa7-d1ea-54ce-ad38-206ed97c6fc5-attr-3-type" class="er entityLabel">varchar(255)</text><rect height="22" width="55.3671875" y="68" x="67.828125" class="er attributeBoxOdd"></rect><text style="dominant-baseline: middle; font-size: 10.2px;" transform="translate(72.828125,79)" y="0" x="0" id="text-entity-dboStudentGrade-d9998fa7-d1ea-54ce-ad38-206ed97c6fc5-attr-3-name" class="er entityLabel">CourseID</text><rect height="22" width="42.3125" y="68" x="123.1953125" class="er attributeBoxOdd"></rect><text style="dominant-baseline: middle; font-size: 10.2px;" transform="translate(128.1953125,79)" y="0" x="0" id="text-entity-dboStudentGrade-d9998fa7-d1ea-54ce-ad38-206ed97c6fc5-attr-3-comment" class="er entityLabel">PK, FK</text><rect height="22" width="67.828125" y="90" x="0" class="er attributeBoxEven"></rect><text style="dominant-baseline: middle; font-size: 10.2px;" transform="translate(5,101)" y="0" x="0" id="text-entity-dboStudentGrade-d9998fa7-d1ea-54ce-ad38-206ed97c6fc5-attr-4-type" class="er entityLabel">varchar(255)</text><rect height="22" width="55.3671875" y="90" x="67.828125" class="er attributeBoxEven"></rect><text style="dominant-baseline: middle; font-size: 10.2px;" transform="translate(72.828125,101)" y="0" x="0" id="text-entity-dboStudentGrade-d9998fa7-d1ea-54ce-ad38-206ed97c6fc5-attr-4-name" class="er entityLabel">FacultyID</text><rect height="22" width="42.3125" y="90" x="123.1953125" class="er attributeBoxEven"></rect><text style="dominant-baseline: middle; font-size: 10.2px;" transform="translate(128.1953125,101)" y="0" x="0" id="text-entity-dboStudentGrade-d9998fa7-d1ea-54ce-ad38-206ed97c6fc5-attr-4-comment" class="er entityLabel">PK, FK</text><rect height="22" width="67.828125" y="112" x="0" class="er attributeBoxOdd"></rect><text style="dominant-baseline: middle; font-size: 10.2px;" transform="translate(5,123)" y="0" x="0" id="text-entity-dboStudentGrade-d9998fa7-d1ea-54ce-ad38-206ed97c6fc5-attr-5-type" class="er entityLabel">numeric</text><rect height="22" width="55.3671875" y="112" x="67.828125" class="er attributeBoxOdd"></rect><text style="dominant-baseline: middle; font-size: 10.2px;" transform="translate(72.828125,123)" y="0" x="0" id="text-entity-dboStudentGrade-d9998fa7-d1ea-54ce-ad38-206ed97c6fc5-attr-5-name" class="er entityLabel">Grade</text><rect height="22" width="42.3125" y="112" x="123.1953125" class="er attributeBoxOdd"></rect><text style="dominant-baseline: middle; font-size: 10.2px;" transform="translate(128.1953125,123)" y="0" x="0" id="text-entity-dboStudentGrade-d9998fa7-d1ea-54ce-ad38-206ed97c6fc5-attr-5-comment" class="er entityLabel"></text></g><rect height="14" width="50.6875" y="464" x="598.2032470703125" class="er relationshipLabelBox"></rect><text style="text-anchor: middle; dominant-baseline: middle; font-size: 12px;" y="471" x="623.5469970703125" id="rel1" class="er relationshipLabel">CourseID</text><rect height="14" width="53.3671875" y="195.56724548339844" x="341.1962890625" class="er relationshipLabelBox"></rect><text style="text-anchor: middle; dominant-baseline: middle; font-size: 12px;" y="202.56724548339844" x="367.8798828125" id="rel2" class="er relationshipLabel">StudentID</text><rect height="14" width="42.0078125" y="202.86392211914062" x="522.1373291015625" class="er relationshipLabelBox"></rect><text style="text-anchor: middle; dominant-baseline: middle; font-size: 12px;" y="209.86392211914062" x="543.1412353515625" id="rel3" class="er relationshipLabel">ClassID</text><rect height="14" width="50.6875" y="170.72503662109375" x="580.6497802734375" class="er relationshipLabelBox"></rect><text style="text-anchor: middle; dominant-baseline: middle; font-size: 12px;" y="177.72503662109375" x="605.9935302734375" id="rel4" class="er relationshipLabel">CourseID</text><rect height="14" width="50.6796875" y="163.84356689453125" x="172.12872314453125" class="er relationshipLabelBox"></rect><text style="text-anchor: middle; dominant-baseline: middle; font-size: 12px;" y="170.84356689453125" x="197.46856689453125" id="rel5" class="er relationshipLabel">FacultyID</text></svg>